<?xml version="1.0" encoding="utf-8"?>
<!-- Generator: Adobe Illustrator 22.0.1, SVG Export Plug-In . SVG Version: 6.00 Build 0)  -->
<svg version="1.1" id="Layer_1" xmlns="http://www.w3.org/2000/svg" xmlns:xlink="http://www.w3.org/1999/xlink" x="0px" y="0px"
	 viewBox="0 0 1920 1080" style="enable-background:new 0 0 1920 1080;" xml:space="preserve">
<style type="text/css">
	.st0{fill:none;}
	.st1{fill:#666666;}
	.st2{font-family:'HelveticaNeue-Bold';}
	.st3{font-size:192px;}
	.st4{fill:#976CC4;}
	.st5{font-family:'Luminari-Regular';}
	.st6{font-size:224px;}
	.st7{fill:url(#SVGID_1_);}
	.st8{fill:url(#SVGID_2_);}
	.st9{fill:url(#SVGID_3_);}
	.st10{fill:url(#SVGID_4_);}
	.st11{fill:url(#SVGID_5_);}
	.st12{fill:url(#SVGID_6_);}
	.st13{fill:url(#SVGID_7_);}
	.st14{fill:url(#SVGID_8_);}
</style>
<g>
	
		<rect x="805" y="353.1" transform="matrix(1.625996e-03 -1 1 1.625996e-03 291.0067 1468.1217)" class="st0" width="151.6" height="470.4"/>
	<text transform="matrix(1 1.630000e-03 -1.630000e-03 1 674.9276 649.2379)" class="st1 st2 st3">MED</text>
	
		<rect x="1060.4" y="511.2" transform="matrix(1.625996e-03 -1 1 1.625996e-03 582.2583 1759.1981)" class="st0" width="223.6" height="153.6"/>
	<text transform="matrix(1 1.630000e-03 -1.630000e-03 1 1119.9912 646.8138)" class="st4 st5 st6">e</text>
	
		<rect x="1362.9" y="390.8" transform="matrix(1.625996e-03 -1 1 1.625996e-03 847.1658 2027.0004)" class="st0" width="151.6" height="396.9"/>
	<text transform="matrix(1 1.630000e-03 -1.630000e-03 1 1240.1007 650.1595)" class="st1 st2 st3">PAL</text>
</g>
<g>
	
		<linearGradient id="SVGID_1_" gradientUnits="userSpaceOnUse" x1="419.5999" y1="490.8239" x2="571.5885" y2="578.2453" gradientTransform="matrix(1 1.625996e-03 -1.625996e-03 1 0.8078 -1.5695)">
		<stop  offset="0" style="stop-color:#A25CA8"/>
		<stop  offset="0.2529" style="stop-color:#9451A4"/>
		<stop  offset="0.7277" style="stop-color:#703698"/>
		<stop  offset="1" style="stop-color:#582491"/>
	</linearGradient>
	<path class="st7" d="M385,643.9L385,643.9c24.7,24.8,65.2,24.8,90,0.1l130.9-130.5c24.9-24.8,24.9-65.1,0.1-90l0,0
		c-24.7-24.8-65.2-24.8-90-0.1L385.2,553.9C360.4,578.6,360.3,619.1,385,643.9z"/>
	<g>
		<linearGradient id="SVGID_2_" gradientUnits="userSpaceOnUse" x1="482.5809" y1="735.7358" x2="670.6229" y2="627.1697">
			<stop  offset="1.241987e-03" style="stop-color:#F2F2F2"/>
			<stop  offset="0.1035" style="stop-color:#E2E2E2"/>
			<stop  offset="0.3476" style="stop-color:#C2C2C2"/>
			<stop  offset="0.5836" style="stop-color:#ACACAC"/>
			<stop  offset="0.8058" style="stop-color:#9E9E9E"/>
			<stop  offset="1" style="stop-color:#999999"/>
		</linearGradient>
		<path class="st8" d="M492.8,668.7l-0.1,67.4c-0.1,35,28.5,63.7,63.5,63.7h0c35,0.1,63.7-28.5,63.7-63.5l0.3-196.5L492.8,668.7z"/>
	</g>
	
		<linearGradient id="SVGID_3_" gradientUnits="userSpaceOnUse" x1="385.276" y1="644.8375" x2="605.8931" y2="424.2205" gradientTransform="matrix(1 1.625996e-03 -1.625996e-03 1 0.8078 -1.5695)">
		<stop  offset="1.241987e-03" style="stop-color:#000000;stop-opacity:0.7"/>
		<stop  offset="1" style="stop-color:#000000;stop-opacity:0"/>
	</linearGradient>
	<path class="st9" d="M385,643.9L385,643.9c24.7,24.8,65.2,24.8,90,0.1l130.9-130.5c24.9-24.8,24.9-65.1,0.1-90l0,0
		c-24.7-24.8-65.2-24.8-90-0.1L385.2,553.9C360.4,578.6,360.3,619.1,385,643.9z"/>
	<g>
		
			<linearGradient id="SVGID_4_" gradientUnits="userSpaceOnUse" x1="200.6198" y1="728.8322" x2="404.665" y2="524.787" gradientTransform="matrix(1 1.626000e-03 -1.838092e-03 1.1304 0.9778 -104.6154)">
			<stop  offset="1.241987e-03" style="stop-color:#F2F2F2"/>
			<stop  offset="0.3708" style="stop-color:#CCCCCC"/>
			<stop  offset="0.7817" style="stop-color:#A7A7A7"/>
			<stop  offset="1" style="stop-color:#999999"/>
		</linearGradient>
		<path class="st10" d="M305.2,799.5l-6,0c-35-0.1-63.6-28.7-63.5-63.7l0.4-262.8c0.1-35.1,28.6-63.6,63.7-63.5l6,0
			c35,0.1,63.6,28.7,63.5,63.7L368.9,736C368.8,771,340.2,799.5,305.2,799.5z"/>
		
			<linearGradient id="SVGID_5_" gradientUnits="userSpaceOnUse" x1="302.6678" y1="454.3353" x2="302.6678" y2="799.3348" gradientTransform="matrix(1 1.626000e-03 -1.838092e-03 1.1304 0.9778 -104.6154)">
			<stop  offset="0" style="stop-color:#000000;stop-opacity:0.7"/>
			<stop  offset="1" style="stop-color:#000000;stop-opacity:0"/>
		</linearGradient>
		<path class="st11" d="M305.2,799.5l-6,0c-35-0.1-63.6-28.7-63.5-63.7l0.4-262.8c0.1-35.1,28.6-63.6,63.7-63.5l6,0
			c35,0.1,63.6,28.7,63.5,63.7L368.9,736C368.8,771,340.2,799.5,305.2,799.5z"/>
		
			<linearGradient id="SVGID_6_" gradientUnits="userSpaceOnUse" x1="465.5899" y1="652.7888" x2="312.7447" y2="388.053" gradientTransform="matrix(1 1.625996e-03 -1.625996e-03 1 0.8078 -1.5695)">
			<stop  offset="0" style="stop-color:#A25CA8"/>
			<stop  offset="1" style="stop-color:#582491"/>
		</linearGradient>
		<path class="st12" d="M471.7,550.9L471.7,550.9L344.4,423.2c-24.7-24.8-65.2-24.8-90-0.1l0,0c-24.9,24.8-24.9,65.1-0.1,90
			l130.5,130.9c24.7,24.8,65.2,24.8,90,0.1l0,0c1.7-1.6,3.2-3.4,4.6-5.1l0,0l70.6-72C512.9,587.8,471.7,550.9,471.7,550.9z"/>
	</g>
	
		<linearGradient id="SVGID_7_" gradientUnits="userSpaceOnUse" x1="262.1269" y1="367.1513" x2="341.3228" y2="287.9555" gradientTransform="matrix(1 1.625996e-03 -1.625996e-03 1 0.8078 -1.5695)">
		<stop  offset="0" style="stop-color:#A25CA8"/>
		<stop  offset="0.3329" style="stop-color:#8D4CA1"/>
		<stop  offset="1" style="stop-color:#582491"/>
	</linearGradient>
	<circle class="st13" cx="302" cy="326.5" r="56"/>
	
		<linearGradient id="SVGID_8_" gradientUnits="userSpaceOnUse" x1="532.4753" y1="367.1272" x2="611.6711" y2="287.9314" gradientTransform="matrix(1 1.625996e-03 -1.625996e-03 1 0.8078 -1.5695)">
		<stop  offset="1.241987e-03" style="stop-color:#B3B3B3"/>
		<stop  offset="1.390564e-02" style="stop-color:#B1B1B1"/>
		<stop  offset="0.3232" style="stop-color:#868686"/>
		<stop  offset="0.6015" style="stop-color:#676767"/>
		<stop  offset="0.8365" style="stop-color:#545454"/>
		<stop  offset="1" style="stop-color:#4D4D4D"/>
	</linearGradient>
	<circle class="st14" cx="572.3" cy="326.9" r="56"/>
</g>
</svg>
